<?xml version="1.0" encoding="UTF-8"?><svg xmlns="http://www.w3.org/2000/svg" height="837.22" version="1.1" viewBox="0 0 914.8678 837.22296" width="914.87">
 <defs>
  <radialGradient cx="249.96" cy="518.56" gradientTransform="matrix(.47102 1.3357 -.97506 .34385 643.69 -93.122)" gradientUnits="userSpaceOnUse" id="c" r="241.92">
   <stop offset="0" stop-color="#35455b"/>
   <stop offset="1" stop-color="#2d353e"/>
  </radialGradient>
  <radialGradient cx="388.84" cy="779.17" gradientTransform="matrix(-1.1172 -.24094 .12481 -.57872 702.23 1196.4)" gradientUnits="userSpaceOnUse" id="d" r="265.06">
   <stop offset="0" stop-color="#de4b44"/>
   <stop offset="1" stop-color="#dd2d25"/>
  </radialGradient>
 </defs>
 <g id="change1_1"><path d="m62.795 594.9-50.002 28.05 18.294 13.415 26.831 2.4391 37.807-14.635z" fill="#fede73" fill-rule="evenodd" stroke="#000" stroke-width="1px"/></g>
 <g id="change1_2"><path d="m117.68 638.81s12.837 58.608-64.637 96.346c-79.927 38.933 71.955 45.124 71.955 45.124l32.928-19.513 37.807-54.881 18.294-41.465z" fill="#fede73" fill-rule="evenodd" stroke="#000" stroke-width="1px"/></g>
 <g id="change1_3"><path d="m484.77 648.56 30.489 26.831 21.952 19.513 25.611 28.05 23.172 29.27 28.05 23.172 39.026 30.489 45.124 20.733 37.807-6.0978 30.489-13.415 13.415-17.074 2.4391-7.3174-17.074-6.0978-50.002-14.635-47.563-35.368-56.1-47.563-28.05-36.587-34.148-30.489z" fill="#fede73" fill-rule="evenodd" stroke="#000" stroke-width="1px"/></g>
 <g id="change2_1"><path d="m443.3 666.86 43.904 25.611 31.709 26.831 30.489 32.928 26.831 29.27 29.27 20.733 39.026 14.635 26.831 3.6587-56.1-43.904-35.368-32.928-41.465-47.563-52.441-47.563-30.489-1.2196z" fill="#b2914f" fill-rule="evenodd" stroke="#000" stroke-width="1px"/></g>
 <g id="change2_2"><path d="m215.24 664.42-24.391 46.344-37.807 52.441 1.2196 13.415 25.611-4.8783 40.246-29.27 18.294-30.489 19.513-42.685z" fill="#b2914f" fill-rule="evenodd" stroke="#000" stroke-width="1px"/></g>
 <g id="change2_3"><path d="m588.58 557.86-9.9305 26.481 52.962 11.034h50.756l41.929-17.654 75.03-63.996-60.686 17.654-43.032 14.344-47.446 13.241-36.412 1.1034z" fill="#b2914f" fill-rule="evenodd" stroke="#000" stroke-width="1px"/></g>
 <g id="change1_4"><path d="m587.59 500.69 54.466-35.403 35.403-39.488 32.68 10.893 43.573-1.3617 80.338-20.425 68.083-32.68-20.425 47.658-89.869 84.423-80.338 28.595-65.36 14.978h-54.467l-9.5316-31.318z" fill="#fede73" fill-rule="evenodd" stroke="#000" stroke-width="1px"/></g>
 <g id="change2_4"><path d="m576.7 481.62 118.46-190.63 140.25 47.658-13.617 20.425-24.51 12.255-85.784-1.3617-31.318 55.828-40.85 38.126-49.02 39.488z" fill="#b2914f" fill-rule="evenodd"/></g>
 <g id="change1_5"><path d="m642.06 116.7c-85.784 1.3617-92.593-2.7233-118.46 36.765-25.872 39.488-80.36 93.703 20.425 202.89 16.34 17.702-4.085 2.7233 28.595 19.063s-13.617 98.039-13.617 98.039l13.617 12.255s88.508-47.658 113.02-155.23c7.9402-34.849 76.253 5.4466 108.93-19.063 32.68-24.51 85.784-85.784 87.146-113.02s-2.7233-27.233-44.935-29.956c-42.211-2.7233-194.72-51.743-194.72-51.743z" fill="#fede73" fill-rule="evenodd"/></g>
 <path d="m71.377 574.71c39.942-1.979 24.623 43.326 125.08 61.635 100.46 18.308 142.83 6.5816 190.34-3.6256 47.509-10.207 84.613-21.202 114.21-49.852 29.592-28.649 34.36-39.746 44.413-88.826s43.412 13.591 43.507 43.507-21.837 70.324-67.073 93.358-84.857 32.374-156.81 37.162c-71.949 4.7881-79.77 10.875-172.21-8.1575s-161.4-83.222-121.46-85.201z" fill="url(#d)" fill-rule="evenodd" stroke="#000" stroke-width="1px"/>
 <path d="m228.93 246.21c-6.5028-0.001-12.909 0.35416-19.184 1.0918-101.37 11.917-137.36 90.07-144.81 151.63s15.639 106.04 7.2422 166.17c-1.0664 7.6362 59.352 58.252 137.02 73.92s176.84-0.41409 219.17-17.4c129.44-45.703 125.33-130.68 110.91-145.03-39.458-39.257-69.18-102.64-124.96-152.12-50.555-44.835-122.51-78.242-185.38-78.256zm180.12 423.89c-14.082 0.0207-29.411 1.0412-48.941 0.57032-52.081-1.2558-104.51 2.1328-104.51 2.1328l-15.998 44.789s77.732 30.122 121.57 27.727 169.93-28.162 121.57-55.453c-30.222-17.057-50.228-19.8-73.697-19.766z" fill="url(#c)" fill-rule="evenodd" stroke="#000" stroke-width="1px"/>
 <g id="change3_1"><path d="m642.04 82.763-25.068 8.0234-26.072 28.076 6.0176 99.273-108.3 7.0195-13.035 16.043-3.0078 21.059 14.037 39.107 16.045 5.0137 36.1-6.0156 49.135-20.057 26.072-14.037 22.061-23.064 35.096 12.033 25.068-7.0195 23.064-16.043 8.0215-26.072 1.0039-42.115 20.055-11.031 10.027-7.0195v-12.033l-6.0176-10.027-10.027-5.0137-24.066 8.0215-18.049-20.055-34.094-21.057-24.066-3.0098zm83.229 186.51-14.037 5.0137-17.047 16.043 20.055 15.043 17.047 1.002 5.0137 17.047-4.0117 18.049-13.035 17.047 7.0195 7.0195 19.053 6.0176 18.049-10.027 26.072-42.117-13.037-12.033-11.029-25.068-17.047-11.029-23.064-2.0059z" fill="#d51021" fill-rule="evenodd" stroke="#000" stroke-width="1px"/></g>
 <g id="change4_1"><path d="m653.07 137.92-10.028 12.033-3.0083 21.058 4.011 36.099 16.044 11.03 20.055 4.011 18.05-13.036-1.0028-31.085-14.039-30.083l-14.039-12.033z" fill="#104fb9" fill-rule="evenodd" stroke="#000" stroke-width="1px"/></g>
 <g id="change5_1"><path d="m514.69 8.5601-29.08 11.029-2.0059 17.047 23.064 35.098 40.109 64.176 42.115 61.168 4.0117-81.223l-33.092-60.166-25.068-41.113-20.055-6.0156zm114.31 233.64-3.0078 29.08 32.088 44.121 20.055 22.061 28.076 17.047 16.045 5.0137 13.035-24.066-1.002-25.068-29.08-5.0137-25.068-19.053-19.053-25.068-16.045-16.045-16.043-3.0078z" fill="#08247a" fill-rule="evenodd" stroke="#000" stroke-width="1px"/></g>
 <g id="change6_1"><path d="m679.36 834.73c-4.125-1.3305-15.37-4.1897-24.989-6.354-22.832-5.137-27.508-6.8279-44.512-16.097-24.013-13.089-34.67-20.679-47.149-33.579-15.082-15.59-38.938-42.114-48.099-53.479-9.5624-11.862-12.409-12.521-22.751-5.2647-12.495 8.7669-71.267 26.072-94.622 27.861-4.3331 0.33189-15.298 1.2917-24.367 2.1329-14.349 1.331-18.891 1.2475-35-0.64333-37.911-4.4499-68.911-10.749-83.511-16.971-6.1875-2.6365-12.275-5.1312-13.528-5.5439-3.72-1.2252-6.859 1.3925-10.24 8.5397-3.7775 7.9849-16.586 21.484-28.302 29.828-14.732 10.491-39.748 20.728-57.371 23.475-21.261 3.315-76.724-3.5753-92.635-11.508-2.5174-1.2551-8.9861-4.0148-14.375-6.1328-16.201-6.3672-25.423-13.948-25.423-20.898 0-3.8661 3.7406-6.247 13.192-8.3966 10.163-2.3116 34.785-13.884 47.841-22.485 10.222-6.7343 16.697-13.889 27.451-30.332 9.8289-15.029 13.184-24.982 12.564-37.269-0.432-8.5547-0.7857-9.5669-4.7841-13.692-5.9516-6.1405-12.166-7.9008-17.693-5.012-20.97 10.96-26.902 12.503-44.391 11.544-17.912-0.98197-37.621-8.4922-44.184-16.836-4.0422-5.1388-3.2539-7.3468 3.2033-8.9728 12.254-3.0854 38.314-16.35 46.365-23.601 1.582-1.4246 3.2734-5.2384 4.1097-9.2667 1.057-5.0916 2.5364-7.9267 5.7731-11.064 5.842-5.6622 7.0262-10.715 5.5601-23.721-0.6563-5.8218-1.1721-15.366-1.1462-21.21 0.068-15.417-2.1569-44.056-4.3215-55.625-5.2601-28.112-5.6639-69.647-0.901-92.682 2.2845-11.049 9.8038-30.764 15.663-41.068 1.5638-2.75 4.0944-9.2188 5.6237-14.375 1.91-6.4401 4.0764-10.745 6.9204-13.75 2.2771-2.4062 5.4028-6.9062 6.9461-10 3.4448-6.9054 20.435-24.617 30.584-31.882 4.125-2.9529 12.281-7.3476 18.125-9.766 5.8437-2.4184 14-5.8017 18.125-7.5185 21.958-9.1385 63.581-13.372 89.536-9.1061 12.63 2.0757 74.945 21.452 93.589 29.1 16.384 6.7215 34.873 17.296 48.56 27.774 15.496 11.863 44.06 37.972 51.104 46.712 23.131 28.702 41.89 53.997 50.483 68.073 2.8501 4.6687 7.8257 11.582 11.057 15.364 3.2312 3.7812 8.4155 10.812 11.521 15.625 3.1053 4.8125 6.8403 9.807 8.3 11.099 3.3794 2.9907 10.411 4.2795 18.366 3.3666 6.0947-0.69938 6.311-0.86933 9.6595-7.5904 4.3862-8.8038 6.3293-15.346 10.947-36.858 5.9387-27.666 5.6686-28.652-11.312-41.247-7.0481-5.2278-14.646-12.356-19.756-18.535-18.068-21.847-38.652-40.86-44.236-40.86-7.4906 0-16.344-12.413-17.846-25.022-0.449-3.7692-1.9049-12.714-3.2353-19.878-1.3304-7.1635-2.7671-17.93-3.1927-23.924l-0.7736-10.9 7.4043-8.6029c6.0464-7.0252 8.1727-10.776 11.594-20.451 2.3044-6.5162 4.9273-12.701 5.8287-13.744 0.9013-1.0432 3.7358-6.9494 6.2988-13.125s6.7352-14.322 9.2714-18.103 6.1146-9.8473 7.9521-13.48c1.8374-3.6329 5.5939-8.8584 8.3479-11.612 8.96-8.96 9.2011-13.769 1.2176-24.282-2.6103-3.4375-7.7317-11.835-11.381-18.66-3.6493-6.8256-9.2211-15.826-12.382-20s-11.036-15.141-17.5-24.37c-10.587-15.115-11.808-17.439-12.304-23.423-0.6812-8.2144 1.1381-11.325 10.109-17.281 12.222-8.1149 33.362-11.494 46.849-7.4892 11.237 3.3371 23.922 18.87 37.971 46.497 3.9224 7.7133 8.0344 15.307 9.1378 16.875s3.1748 6.7884 4.6032 11.601 3.2415 9.5147 4.0291 10.449c0.7877 0.93464 2.8384 4.5909 4.5571 8.125 3.7201 7.6493 7.2405 8.8697 12.322 4.2718 18.273-16.532 40.789-23.507 61.768-19.134 18.576 3.8726 32.383 12.128 48.093 28.756 5.9168 6.2624 11.07 10.657 12.497 10.657 1.3353 0 5.6977-1.125 9.6943-2.5 9.5364-3.281 15.49-3.1909 20.638 0.3125 6.7414 4.5882 8.7452 8.3367 9.8166 18.364 1.2412 11.616 3.397 13.695 18.005 17.359 18.974 4.7587 41.679 6.869 65.291 6.068 29.58-1.0034 39.388 1.3654 41.813 10.099 3.9049 14.061 0.2861 29.668-11.964 51.6-3.6983 6.6211-6.7242 12.353-6.7242 12.738 0 1.1296-15.02 24.773-20.065 31.585-2.5459 3.4375-6.1714 7.6562-8.0567 9.375s-4.7591 5.211-6.3861 7.7604c-1.6271 2.5495-6.2508 8.461-10.275 13.137-8.5323 9.9135-12.665 19.855-10.359 24.917 1.8865 4.1405 10.58 7.8751 18.41 7.9087 13.197 0.0566 16.203 7.3178 8.8919 21.481-3.6965 7.1609-5.023 8.4766-13.812 13.699-5.3473 3.1776-10.991 6.9695-12.542 8.4263-5.8459 5.492-18.731 7.384-52.057 7.6442-16.844 0.13152-33.222-0.15455-36.396-0.6357-6.5255-0.98924-6.3133-1.1738-14.411 12.538-10.345 17.516-15.728 29.01-14.862 31.736 1.7131 5.3977 5.3911 6.3981 26.428 7.1879 19.163 0.71946 20.442 0.60946 36.117-3.1056 8.9375-2.1183 24.495-5.5626 34.573-7.654 19.666-4.0812 44.866-11.892 55.267-17.129 11.586-5.8342 24.156-13.923 38.438-24.736 20.991-15.892 25.885-15.813 27.048 0.43832 0.5024 7.0215 0.045 10.655-2.2333 17.741-5.5113 17.14-15.354 30.815-45.002 62.523-8.6132 9.2117-18.034 19.893-20.935 23.736-7.4096 9.8152-41.386 42.826-53.658 52.133-5.6391 4.2768-13.514 10.761-17.5 14.41-17.287 15.824-46.77 35.696-65.617 44.225-19.55 8.8475-25.606 10.271-49.315 11.596-31.134 1.739-53.484-0.79785-70.712-8.0261-6.9413-2.9122-9.2477-2.4438-15.262 3.0998-6.6685 6.1468-9.8535 12.346-8.7015 16.936 0.46 1.8326 4.8355 7.3426 9.7234 12.245 8.4344 8.4587 19.167 20.966 30.063 35.034 2.7094 3.4981 5.6224 6.7876 6.4734 7.31 3.5998 2.2097 19.165 15.82 26.1 22.823 8.6211 8.7045 34.851 32.089 46.104 41.102 4.2054 3.3684 12.716 8.5137 18.913 11.434 6.1968 2.9202 15.938 8.1468 21.648 11.615 11.388 6.9166 20.362 10.219 36.328 13.37 17.553 3.4636 26.382 7.7795 26.382 12.896 0 4.063-9.8447 15.836-19.979 23.893-11.546 9.1792-16.622 12.069-28.146 16.022-4.125 1.4151-11.719 4.2611-16.875 6.3242-8.6424 3.4581-24.24 6.5406-32.278 6.3792-1.8409-0.037-6.722-1.1558-10.847-2.4862zm47.21-18.765c15.891-3.2383 28.324-7.5605 36.097-12.549 12.727-8.1667 16.19-17.105 7.3179-18.887-30.717-6.1672-36.431-7.6517-44.375-11.529-4.8125-2.349-11-5.1886-13.75-6.3104-2.75-1.1217-6.4895-3.4661-8.31-5.2098-3.8025-3.6421-8.7663-7.1845-29.385-20.971-8.7142-5.8265-19.947-14.869-27.305-21.982-6.875-6.6456-15.551-14.847-19.28-18.226-12.297-11.143-20.336-19.763-27.662-29.663-10.694-14.451-30.49-36.281-38.132-42.051-3.6824-2.7802-8.0615-5.055-9.7314-5.055s-6.3347 2.1824-10.366 4.8497c-4.0314 2.6673-12.955 7.2242-19.83 10.126-29.352 12.391-28.799 11.916-23.028 19.763 2.0601 2.8013 6.3966 7.0096 9.6367 9.3517 3.24 2.3422 9.5559 7.583 14.035 11.646 4.4794 4.0634 10.503 9.245 13.386 11.515 2.883 2.2698 7.9368 7.6796 11.231 12.022 8.4804 11.18 47.917 53.268 63.42 67.685 7.1771 6.674 15.472 13.504 18.434 15.177 2.9615 1.6733 6.7909 4.3179 8.5097 5.8768 4.9906 4.5266 14.728 9.9577 28.796 16.061 15.377 6.6712 21.07 8.3658 28.704 8.5444 3.0937 0.0724 7.0312 0.58194 8.75 1.1324 5.1247 1.6412 9.5723 1.3845 22.835-1.3183zm-80.434-7.3442c3.1083-1.9673-1.1537-6.4083-15.063-15.696-10.431-6.9654-18.333-14.066-40.463-36.361-28.701-28.915-43.711-45.013-49.769-53.376-5.4518-7.526-21.892-23.111-29.606-28.065-3.7812-2.4287-8.986-6.311-11.566-8.6273-2.5801-2.3162-5.1746-4.2114-5.7656-4.2114s-3.198-1.6875-5.7933-3.75c-5.5522-4.4124-11.719-4.903-21.34-1.6978-7.7216 2.5723-9.2852 3.7986-9.2852 7.2822 0 3.3957 2.4793 5.6768 10.625 9.7756 14.034 7.0616 49.458 35.613 58.856 47.438 3.3792 4.2518 18.115 19.734 32.746 34.404 21.379 21.436 28.987 28.214 38.75 34.521 22.27 14.386 41.971 21.975 47.674 18.365zm-518.57-37.005c14.118-7.3006 35.599-27.81 47.742-45.582 15.525-22.722 17.883-26.588 23.382-38.339 6.5251-13.945 6.2929-16.968-1.5656-20.379-2.8962-1.2572-8.3596-2.6559-12.141-3.1082-9.4376-1.1288-28.504-6.4602-41.095-11.491-5.7583-2.3008-12.38-4.1832-14.714-4.1832-5.0122 0-5.7152 1.2514-8.4262 15-1.8031 9.1441-11.677 32.621-14.437 34.327-1.2346 0.763-5.2842 5.8488-15.078 18.936-5.2634 7.0335-13.497 13.157-22.759 16.926-13.344 5.4303-28.443 14.81-29.293 18.197-1.1406 4.5446 0.2127 6.2807 7.9324 10.177 9.7425 4.9169 18.986 7.6531 30.995 9.1746 5.5 0.69688 12.812 1.7302 16.25 2.2963 9.8315 1.6191 28.415 0.52718 33.208-1.9512zm53.217-9.9816c4.9428-2.186 10.563-6.4876 18.372-14.062 17.556-17.03 20.92-20.64 22.983-24.663 1.0574-2.0625 4.9244-7.1906 8.5932-11.396 6.7095-7.6904 16.752-25.807 16.752-30.221 0-3.5604-3.6221-6.069-10.999-7.618-17.089-3.5881-21.074-1.1844-30.426 18.35-6.2461 13.047-26.113 44.178-30.484 47.768-6.8195 5.601-13.938 21.226-11.007 24.157 1.7814 1.7814 9.4175 0.69088 16.217-2.316zm196.41-23.791c8.6579-1.0672 16.158-2.1976 16.667-2.512 0.9817-0.60678 34.134-7.1914 43.625-8.6647 3.0938-0.48025 6.75-1.5752 8.125-2.4332 3.8224-2.3851 23.27-10.462 27.5-11.421 5.0207-1.1385 10.625-6.5362 10.625-10.233 0-1.643-1.5469-4.5256-3.4375-6.4056-4.0902-4.0674-20.437-11.101-29.491-12.689-3.5457-0.62186-10.947-1.9404-16.447-2.9301-7.7366-1.3921-24.288-1.8394-73.125-1.976-77.506-0.21683-101 0.42157-103.39 2.8092-2.7578 2.7577-12.861 26.109-12.861 29.725 0 1.806 0.9843 4.1307 2.1875 5.1661 2.4648 2.1212 18.716 7.3031 32.812 10.462 5.1562 1.1556 11.344 3.076 13.75 4.2674 7.6359 3.7808 35.231 7.5795 62.296 8.5756 2.9816 0.10975 12.505-0.67364 21.163-1.7408zm-15.334-75.495c44.923-2.1287 62.738-4.1508 76.25-8.6545 6.1875-2.0624 23.062-7.5114 37.5-12.109 24.358-7.7567 43.135-15.728 52.372-22.232 2.1043-1.4818 8.2906-6.5 13.747-11.152 5.4567-4.6516 12.5-10.111 15.651-12.131 10.136-6.4997 10.813-7.1739 14.896-14.834 7.8008-14.636 10.4-32.199 8.2314-55.614-0.6711-7.2443-1.6562-10.817-3.7916-13.75-1.5868-2.1795-4.3179-6.6256-6.0692-9.8804-2.2335-4.151-4.7412-6.712-8.3994-8.5784-6.5597-3.3465-7.4497-2.3933-9.6985 10.387-0.8815 5.0098-2.883 12.202-4.4478 15.984-1.5647 3.7812-3.4924 10.033-4.2838 13.892-0.7914 3.8592-2.8213 8.8904-4.5108 11.18-1.7349 2.3516-3.0718 5.8816-3.0718 8.1109 0 2.171-1.2656 5.6801-2.8125 7.798-21.513 29.455-25.85 32.782-67.188 51.549-7.9062 3.5895-14.954 6.9854-15.661 7.5466-1.4334 1.1371-17.979 7.074-30.85 11.07-4.6125 1.4319-10.458 2.6034-12.99 2.6034-5.3282 0-19.974 4.138-26.583 7.5105-9.0735 4.6304-33.599 6.659-100.17 8.2853-22.524 0.5503-29.291 0.67283-44.375 0.80361-10.434 0.0905-40.019-5.3459-57.5-10.566-28.055-8.3772-48.656-16.837-51.26-21.05-0.4648-0.75215-5.434-4.3481-11.042-7.991-5.6086-3.6429-11.825-8.8159-13.814-11.496-4.0526-5.4602-14.315-14.126-20.384-17.212-6.7436-3.4299-15.374-1.9696-15.374 2.6012 0 2.1387 16.516 18.706 30.046 30.138 4.3278 3.657 11.291 8.3689 15.474 10.471 4.1828 2.1019 9.1459 4.9093 11.029 6.2387s6.9456 3.4419 11.25 4.6945c4.3045 1.2526 13.94 4.6324 21.412 7.5107 7.4719 2.8783 17.034 5.9899 21.25 6.9148 15.109 3.3147 26.548 5.8664 34.54 7.705 4.4687 1.028 19.656 2.3954 33.75 3.0387 14.094 0.64328 31.812 1.6118 39.375 2.1523 17.041 1.218 37.204 0.97476 77.5-0.93471zm-51.25-22.686c4.8125-0.68223 14.022-1.7726 20.465-2.4229 20.626-2.082 35.487-5.1285 67.035-13.742 22.134-6.0435 39.682-12.418 48.125-17.482 4.4688-2.6802 12.625-6.9296 18.125-9.4432 11.392-5.2062 15.625-8.5622 15.625-12.387 0-6.6378-15.104-46.315-26.555-69.759-3.9575-8.1024-7.1954-14.977-7.1954-15.277 0-0.29993-1.5172-3.7957-3.3715-7.7684s-3.9637-8.6294-4.6875-10.348-3.4991-7.2109-6.1674-12.205c-6.2206-11.642-7.7003-12.046-19.797-5.4077-8.5315 4.6823-12.192 6.2064-30.352 12.638-3.4375 1.2175-12.438 5.0232-20 8.4573-27.447 12.464-51.751 18.484-94.375 23.377-9.2813 1.0655-23.062 2.7494-30.625 3.7421-7.5625 0.99265-22.188 2.4179-32.5 3.1672s-19.459 1.5984-20.324 1.887c-0.866 0.2885-4.522-0.0344-8.1244-0.7176-9.4393-1.7901-20.637-0.29578-22.815 3.0448-1.0242 1.5707-2.2721 9.4832-3.078 19.517-0.7456 9.2812-2.2241 25.312-3.2858 35.625-1.0616 10.312-1.7485 23.23-1.5263 28.705 0.3931 9.6894 0.514 10.029 4.5294 12.73 8.4379 5.676 45.706 16.047 71.368 19.86 7.2909 1.0834 23.944 2.4835 37.006 3.1112 13.062 0.62776 25.719 1.6633 28.125 2.3012 4.4863 1.1894 9.0979 0.96151 24.375-1.2042zm-249.27-9.7884c9.8159-3.0586 16.629-7.3579 17.132-10.811 0.5237-3.5972-6.3423-12.472-10.87-14.051-3.3631-1.1724-4.8271-0.829-11.671 2.7373-15.355 8.002-24.947 13.909-26.109 16.08-1.4961 2.7955 0.5836 6.9169 4.3028 8.527 3.9854 1.7254 17.736 0.47119 27.215-2.4822zm64.614-30.403c0.7035-0.85938 1.9326-11.125 2.7312-22.812 0.7985-11.688 2.011-23.39 2.6942-26.005 1.349-5.1632 0.2353-27.619-1.5404-31.061-1.7954-3.48-11.658-7.3793-24.501-9.687-6.7277-1.2088-13.461-2.8558-14.963-3.6601-4.6693-2.5007-10.11-1.8086-12.322 1.5674-1.7593 2.6851-1.834 5.7055-0.6566 26.562 0.7307 12.943 1.3298 25.95 1.3313 28.904 0 4.7551 0.4587 5.6147 3.9807 7.5 2.1879 1.1712 5.7036 3.8608 7.8126 5.9769 2.1089 2.1162 5.2713 4.7289 7.0275 5.8061s6.3384 4.8332 10.183 8.3467c10.111 9.2408 15.568 11.805 18.222 8.5621zm547.78-13.604c12.662-2.2834 29.321-7.5699 35-11.106 3.0937-1.9266 7.5937-4.3222 10-5.3236 2.4062-1.0014 6.123-3.4426 8.2596-5.4248 7.8505-7.2836 16.257-13.915 20.272-15.991 3.3383-1.7263 4.047-2.7702 3.7322-5.497-0.5439-4.7107-5.3426-4.9933-14.559-0.85738-4.0384 1.8123-11.784 4.3021-17.211 5.5328-5.4278 1.2307-14.931 3.6508-21.119 5.378-42.849 11.961-64.077 15.398-88.3 14.298-11.134-0.50575-17.088-0.3074-18.188 0.60591-1.7796 1.4769-2.1827 8.2563-0.6356 10.691 2.6829 4.2218 17.177 7.0682 45.875 9.009 15.834 1.0709 25.575 0.7237 36.875-1.3142zm-164.33-18.896c19.475-19.882 27.635-43.552 22.619-65.607-1.1195-4.9219-2.0354-10.97-2.0354-13.44 0-5.5689-3.7165-13.027-9.88-19.828-5.6668-6.2524-28.029-36.383-33.679-45.378-7.1272-11.348-12.099-9.9604-30.191 8.4268-5.1562 5.2402-11.203 10.772-13.438 12.293-5.4603 3.7168-5.2968 7.789 0.6862 17.089 6.8096 10.585 15.713 27.32 19.555 36.756 1.8194 4.4688 3.8202 9.25 4.4461 10.625 4.3738 9.6083 16.826 42.668 19.378 51.447 5.8029 19.961 9.2913 21.14 22.538 7.6159zm132.02-17.703c8.6987-0.92741 16.301-1.9858 16.893-2.352 0.5925-0.3662 6.6926-1.6224 13.556-2.7915 14.229-2.4239 29.989-7.0734 46.08-13.594 6.102-2.473 11.801-4.4963 12.665-4.4963 0.8636 0 7.121-2.7547 13.905-6.1215 6.7845-3.3668 14.444-6.994 17.021-8.0603 4.2831-1.7723 13.38-7.9857 25.903-17.693 20.199-15.657 25.019-19.677 29.372-24.495 2.7179-3.0084 8.0575-7.7918 11.866-10.63 12.189-9.084 41.85-39.32 44.433-45.295 4.4757-10.353-2.5326-12.673-14.488-4.7956-10.402 6.8538-25.428 12.811-39.895 15.816-7.2188 1.4995-15.656 3.4928-18.75 4.4295-3.0938 0.93667-9.8438 2.3407-15 3.1201-5.1563 0.7794-14.438 2.5859-20.625 4.0144-21.177 4.8893-45.989 6.2245-75.981 4.0888l-13.481-0.95996-6.0708 4.1427c-3.3389 2.2785-7.0683 5.8314-8.2876 7.8955-3.6894 6.2457-20.701 23.29-28.614 28.669-4.0894 2.7798-9.8873 7.5062-12.884 10.503-2.997 2.997-7.668 6.3369-10.38 7.422-3.057 1.2232-6.8803 4.4149-10.061 8.3987l-5.1297 6.4258 0.9048 8.125c0.4977 4.4688 1.1108 11.219 1.3626 15 0.6582 9.8857 1.3452 11.926 4.5324 13.462 3.9192 1.8888 22.253 1.7872 41.156-0.22806zm-434.57-53.325c7.5625-0.66849 19.094-1.75 25.625-2.4033 6.5312-0.65332 15.812-1.2068 20.625-1.2299 15.263-0.0734 47.54-5.6354 78.75-13.57 16.701-4.2462 23.028-6.3786 41.25-13.903 6.875-2.839 15.312-6.2702 18.75-7.6249 7.8262-3.0842 17.794-10.332 19.57-14.23 1.9628-4.308-2.9363-13.902-13.76-26.947-4.8488-5.8438-10.736-14.562-13.082-19.375-4.4943-9.218-14.221-21.282-29.29-36.326-4.9844-4.9765-9.0625-9.9524-9.0625-11.058 0-1.1052-3.7969-5.8646-8.4375-10.577-4.6407-4.712-10.688-11.45-13.438-14.974-5.4532-6.9878-10.725-10.19-16.775-10.19-3.9146 0-20.452 5.2456-23.073 7.3188-2.4338 1.925-23.359 8.5135-37.656 11.857-24.377 5.7001-55.466 7.0925-85.132 3.813-5.7851-0.63955-6.6233-0.40462-8.9047 2.4957-5.8033 7.3778-7.2851 39.299-4.1568 89.551 0.7501 12.051 1.4181 31.902 1.4844 44.114 0.099 18.312 0.4614 22.545 2.0655 24.149 1.6666 1.6666 4.7318 1.8291 21.421 1.1354 10.712-0.44527 25.664-1.3565 33.226-2.025zm-78.98-2.6131c5.2631-2.8032 5.663-4.571 5.3437-23.624-0.1679-10.015-0.6429-18.756-1.0556-19.424-1.5789-2.5548-2.4203-78.626-1.0403-94.054 1.6467-18.409 0.856-21.176-6.7843-23.743-2.7407-0.92075-8.7332-1.7645-13.317-1.875-9.0861-0.21907-13.884 2.0574-16.958 8.0455-4.551 8.8659-16.327 37.352-20.62 49.879-4.3082 12.572-5.011 16.231-5.6027 29.171-0.7448 16.288 2.7467 57.095 5.1405 60.08 1.9584 2.4426 22.079 10.787 33.874 14.048 11.451 3.1658 17.127 3.5699 21.02 1.4966zm477.78-9.684c19.046-11.751 41.136-31.659 56.199-50.648 4.8125-6.067 10.509-13.069 12.659-15.56 6.3931-7.4067 22.517-37.725 25.554-48.051 1.4214-4.8322-0.4803-9.117-5.3693-12.098-9.3312-5.6892-13.8-2.07-19.442 15.746-2.1994 6.9446-5.1606 14.103-6.5805 15.909-1.4199 1.8051-4.5983 7.6544-7.0632 12.998-4.4619 9.6734-18.941 31.322-23.97 35.838-1.4522 1.3041-4.0827 4.8323-5.8456 7.8404-1.7628 3.0081-5.5647 6.9451-8.4486 8.7489-6.8634 4.2928-23.578 18.386-25.493 21.495-0.8248 1.339-3.4969 3.0938-5.938 3.8995-2.9674 0.9793-4.6845 2.4449-5.1806 4.4216-1.9701 7.8492 5.6765 7.6312 18.919-0.53927zm-21.732-13.272c2.987-2.4254 6.6249-5.4129 8.0844-6.6389s6.522-5.1096 11.25-8.6302c28.316-21.085 57.589-66.107 67.28-103.48l2.2776-8.7824-2.8528-5.5926c-1.5691-3.0759-4.9758-7.5614-7.5706-9.9676-6.2837-5.8272-20.562-24.04-30.54-38.955-12.67-18.94-14.877-19.889-27.406-11.784-10.975 7.1001-15.208 9.4196-20.769 11.382-2.9711 1.0483-7.1712 3.2554-9.3336 4.9047-2.1624 1.6494-9.2453 4.7608-15.74 6.9143-24.106 7.9934-26.248 11.163-17.527 25.939 5.3034 8.9864 27.868 32.114 44.828 45.947 9.5357 7.7774 11.52 11.629 9.8414 19.107-0.4222 1.881-1.5788 7.7447-2.5704 13.03-0.9916 5.2857-2.6465 11.242-3.6775 13.236-1.0311 1.9939-4.1149 9.4817-6.8529 16.64-2.738 7.1579-6.7081 16.799-8.8223 21.424-4.2625 9.3255-4.8412 14.789-1.8798 17.751 3.0018 3.0018 6.0336 2.3829 11.98-2.4456zm-145.24-47.953c10.802-9.0489 20.742-19.532 22.466-23.692 1.3936-3.3646 1.2207-4.5851-1.4884-10.503-1.686-3.6826-7.2258-11.273-12.311-16.868-5.0849-5.5948-15.152-16.759-22.37-24.809-7.2187-8.0504-15.375-16.281-18.125-18.291-2.75-2.0096-5.4629-4.4805-6.0287-5.4908-1.3419-2.3962-15.9-12.983-17.853-12.983-0.8287 0-3.9505-2.0536-6.9374-4.5635s-8.5245-5.948-12.306-7.6402c-5.8784-2.6306-8.1062-2.9756-15.367-2.3796-8.8711 0.72812-16.062 3.9968-18.399 8.3632-2.0224 3.7789 0.4832 7.9565 11.016 18.367 15.707 15.525 23.148 24.711 51.919 64.103 2.7618 3.7812 6.5035 8.8438 8.315 11.25 1.8114 2.4062 6.1658 9.1562 9.6765 15 8.5007 14.15 12.92 18.126 18.44 16.588 1.3614-0.37917 5.5705-3.2823 9.3534-6.4513zm355.13-59.632c10.114-2.9727 23.701-10.467 25.287-13.949 2.0985-4.6056 0.066-6.4038-11.626-10.284-5.842-1.939-12.422-4.256-14.622-5.1489-3.5128-1.4257-4.3018-1.3501-6.4792 0.62039-2.2132 2.0028-11.396 23.362-11.396 26.507 0 4.5283 7.8879 5.4726 18.836 2.255zm-42.092-4.1645c7.3517-5.0581 12.517-12.964 15.907-24.348 1.4187-4.7636 3.7344-9.5881 5.1539-10.738l2.5778-2.0873-2.571-3.6459c-1.414-2.0052-2.9375-6.687-3.3855-10.404-1.013-8.4047-3.1569-12.617-10.319-20.274-7.2558-7.757-16.331-11.399-28.482-11.431-13.299-0.0347-23.125 4.8888-23.125 11.588 0 4.8242 3.3186 7.1746 12.135 8.5944 9.0525 1.4579 12.035 2.8278 17.577 8.0742 5.3897 5.1022 6.7962 10.732 5.4197 21.694-1.2643 10.069-2.4234 12.656-9.0748 20.251-5.3704 6.1323-6.2703 11.447-2.621 15.48 3.4162 3.7749 13.202 2.4802 20.809-2.7531zm-28.595-14.24c5.66-5.66 8.9609-16.799 6.9585-23.483-0.7848-2.6194-2.1146-5.205-2.955-5.7457-0.8404-0.54072-8.278-0.98621-16.528-0.98998-14.524-0.006-15.199-0.12811-21.25-3.8254-4.1958-2.5634-8.1857-6.6222-12.139-12.348-3.2391-4.6914-6.9562-9.2773-8.2604-10.191-1.3041-0.91347-6.9827-8.1439-12.619-16.068-10.654-14.978-13.887-18.2-18.262-18.2-1.9412 0-3.2828 1.619-5.3019 6.3979-2.4736 5.8548-2.5505 6.763-0.9059 10.699 0.9883 2.3656 5.0891 7.7834 9.1127 12.04 4.0236 4.2562 8.652 9.7073 10.285 12.114s3.3257 4.6562 3.7611 5 5.9567 6.6636 12.27 14.044c11.808 13.805 27.469 28.169 35.184 32.27 2.4607 1.308 7.0276 2.3497 10.438 2.3808 5.2362 0.0478 6.628-0.51031 10.212-4.0943zm-534.91-24.079c3.2047-1.088 8.4274-1.8308 11.606-1.6507s8.3107-0.0334 11.404-0.47448c3.0937-0.44111 10.406-1.4083 16.25-2.1494 15.291-1.939 28.757-4.8413 50-10.776 10.921-3.0512 13.616-4.3311 14.414-6.844 0.9718-3.0619 0.1305-4.2854-6.0007-8.7269-2.7979-2.0268-6.1001-5.3509-7.3383-7.387-2.7783-4.5684-18.171-12.242-34.2-17.049-9.6833-2.9041-13.6-3.389-28.125-3.4812-15.095-0.0959-17.534 0.19594-23.125 2.767-8.227 3.7833-14.06 9.5989-24.039 23.968-12.698 18.284-15.016 25.631-9.5231 30.189 4.3554 3.6146 20.165 4.5053 28.676 1.6156zm-52.644-5.8343c2.5627-3.6265 10.654-29.062 10.654-33.491 0-5.61-2.8113-6.8948-9.4983-4.341-7.1885 2.7453-20.753 15.292-24.175 22.36-2.8566 5.9008-3.4064 13.874-1.057 15.326 2.2392 1.3839 9.5407 2.6506 16.222 2.8144 4.7573 0.11662 6.2424-0.38805 7.8541-2.6688zm659-14.375c10.957-7.3874 17.815-13.063 18.538-15.342 0.4159-1.3104 4.3808-5.5647 8.8109-9.4542s8.0548-7.801 8.0548-8.6925 1.9502-3.4603 4.3337-5.7085c2.3836-2.2482 5.1735-6.1863 6.1997-8.7512 1.0798-2.6987 3.5239-5.6274 5.8011-6.9513 2.3776-1.3824 5.1278-4.7616 6.9485-8.5379 1.6574-3.4375 5.8036-11.031 9.2138-16.875 6.7587-11.582 12.503-26.984 12.503-33.524 0-6.058-1.8038-8.5034-8.0247-10.879-5.1719-1.9752-6.3637-1.9826-17.357-0.10887-13.51 2.3028-20.141 2.4931-29.723 0.85286-3.724-0.63751-10.708-1.7997-15.521-2.5826-21.359-3.4748-43.343-8.9814-47.724-11.954-5.7023-3.8697-8.8302-3.8485-14.221 0.0964-7.1841 5.2569-7.4288 6.0132-7.4488 23.026-0.023 19.166-1.9452 27.998-9.4148 43.252-4.8327 9.8689-6.4944 12.045-12.197 15.973-3.6311 2.5009-8.23 6.2462-10.22 8.323-2.3653 2.4688-4.8488 3.776-7.174 3.776-1.9559 0-5.5756 0.84375-8.0437 1.875-2.4682 1.0312-5.8621 1.875-7.5421 1.875-4.5576-0.00001-7.8901 2.2432-7.8901 5.3111 0 3.6011 12.07 14.689 15.99 14.689 1.8503 0 4.7567-2.0336 8.0005-5.5979 6.9955-7.6868 15.222-10.655 29.494-10.643 22.583 0.0196 34.081 3.8304 44.202 14.651 4.1866 4.4758 6.346 8.183 7.8998 13.562 3.6203 12.533 7.4343 14.46 16.51 8.3403zm-257.42-5.441c20.391-5.7778 33.931-11.019 39.604-15.332 2.1128-1.6061 11.057-6.7717 19.876-11.479 18.973-10.127 20.772-12.302 18.46-22.318-1.997-8.6513-7.7689-17.163-14.021-20.677-5.1446-2.8914-5.4076-2.9091-22.28-1.4955-9.3906 0.78679-27.451 1.4427-40.134 1.4575-26.106 0.0306-43.364 2.0935-48.44 5.7905-5.8899 4.2895-8.9944 12.206-8.9944 22.935 0 15.477 4.4384 28.75 12.797 38.27 8.4862 9.6652 17.075 10.233 43.133 2.8492zm-219.12-4.1406c6.3422-2.65 9.1751-9.816 5.1884-13.125-2.7951-2.3198-33.423-11.471-35.832-10.706-3.4301 1.0887-4.0314 4.5196-1.4086 8.0379 2.1294 2.8563 18.982 15.102 23.012 16.721 2.7376 1.1 4.6589 0.90271 9.0411-0.9283zm373.03-46.784c14.315-5.4894 22.944-14.674 28.709-30.558 2.9998-8.2652 3.2717-10.623 3.2735-28.389 0-16.445-0.4295-20.877-2.8512-29.304-6.5313-22.729-20.611-41.603-41.418-55.521-12.831-8.5826-19.961-11.321-31.998-12.289-13.245-1.0654-21.562 1.7552-30.602 10.378-11.764 11.221-17.813 26.535-19.512 49.397-0.655 8.8138-0.2847 12.993 2.0247 22.85 3.2726 13.969 6.4992 19.515 12.57 21.606 9.4877 3.2678 21.882 1.2218 26.252-4.3334 2.1443-2.726 2.5234-4.4719 1.9584-9.0194-2.9238-23.534-2.3348-29.578 3.814-39.143 4.1125-6.3974 13.305-12.121 19.469-12.121 6.6853 0 15.923 5.0377 22.239 12.128 6.0823 6.8278 15.176 25.167 17.539 35.372 2.1789 9.4083 2.2337 29.427 0.097 35.476-2.1578 6.1093-9.5472 14.387-14.809 16.59-9.6599 4.044-24.084 0.94154-33.288-7.16-6.2764-5.5246-10.714-6.2576-14.565-2.4061-3.0967 3.0966-3.229 9.0022-0.3125 13.952 2.2008 3.735 13.966 11.931 20.938 14.587 5.5591 2.1174 22.534 0.95213 30.472-2.0918zm-66.866-15.307c9.6833-7.6169 9.3478-24.182-0.5938-29.323-2.3214-1.2004-5.1812-1.6765-7.2896-1.2134-3.9252 0.86212-10.653 7.3794-11.902 11.529-1.1837 3.9343 1.5454 11.985 5.8216 17.172 4.3113 5.2304 8.8833 5.8312 13.964 1.835zm-90.494-6.8306c5.8506-1.034 19.289-2.2859 29.864-2.782 17.502-0.82108 19.38-1.1336 20.937-3.4843 1.5344-2.3166 1.1135-3.7315-4.09-13.75-3.1902-6.1422-8.219-14.543-11.175-18.668s-7.0616-10.875-9.1234-15c-4.7754-9.5545-12.429-17.187-17.238-17.19-2.6958-0.001-4.7267 1.4215-8.5373 5.983-2.75 3.2919-8.6562 10.003-13.125 14.913-4.4687 4.9102-9.25 10.813-10.625 13.116s-4.0468 6.7738-5.9374 9.9332c-4.3351 7.2446-7.6417 18.14-6.6745 21.993 1.4049 5.5978 3.7657 6.6756 14.778 6.7476 5.6698 0.037 15.096-0.77863 20.946-1.8126zm147.01-9.1908c10.204-4.6342 14.555-16.166 11.837-31.376-6.1927-34.652-39.19-52.53-47.051-25.492-2.622 9.0194-2.6559 29.389-0.064 38.193 4.8852 16.591 21.038 25.141 35.278 18.674zm-95.6-45.431c0.3453-9.4627-0.4329-29.742-1.4751-38.438-0.9493-7.9215-2.5942-12.379-10.609-28.75-20.354-41.572-34.678-67.722-40.654-74.214l-5.9012-6.4109-9.1917 0.0734c-7.1572 0.0572-10.772 0.79802-16.333 3.347-8.4714 3.8835-10.304 7.7464-6.6448 14.009 1.2275 2.1011 3.6474 6.3515 5.3776 9.4452s6.1581 9.7738 9.8398 14.845c3.6817 5.0707 9.5314 15.146 12.999 22.389 6.0467 12.629 17.504 30.437 21.96 34.133 1.1665 0.9675 5.1629 6.474 8.8809 12.237s10.142 14.481 14.277 19.375 9.2928 11.85 11.464 15.46c2.1708 3.6094 4.378 6.5625 4.9048 6.5625 0.5269 0 1.0247-1.8281 1.1063-4.0625zm158.32-15.603c6.1163-2.8394 9.0285-7.2535 9.0285-13.685 0-7.6306-4.019-11.65-11.65-11.65-11.565 0-19.128 12.468-14.671 24.188 1.8547 4.8782 8.3291 5.3074 17.292 1.1463z" fill="#0b0a0a"/></g>
</svg>